<mxfile host="Electron" modified="2024-02-15T06:53:12.320Z" agent="Mozilla/5.0 (X11; Linux x86_64) AppleWebKit/537.36 (KHTML, like Gecko) draw.io/23.0.2 Chrome/120.0.6099.109 Electron/28.1.0 Safari/537.36" etag="J7q9kekvJoaVp9JWA6si" version="23.0.2" type="device">
  <diagram name="Page-1" id="t867Es_OsJ1gA4d-ah_w">
    <mxGraphModel dx="1419" dy="843" grid="1" gridSize="10" guides="1" tooltips="1" connect="1" arrows="1" fold="1" page="1" pageScale="1" pageWidth="827" pageHeight="1169" math="0" shadow="0">
      <root>
        <mxCell id="0" />
        <mxCell id="1" parent="0" />
        <mxCell id="pb4xTn3SGG5Eh6SLnhof-2" value="Table" style="shape=table;startSize=30;container=1;collapsible=0;childLayout=tableLayout;strokeColor=default;fontSize=16;movable=0;resizable=0;rotatable=0;deletable=0;editable=0;locked=1;connectable=0;" vertex="1" parent="1">
          <mxGeometry x="169" y="100" width="490" height="255" as="geometry" />
        </mxCell>
        <mxCell id="pb4xTn3SGG5Eh6SLnhof-48" style="shape=tableRow;horizontal=0;startSize=0;swimlaneHead=0;swimlaneBody=0;strokeColor=inherit;top=0;left=0;bottom=0;right=0;collapsible=0;dropTarget=0;fillColor=none;points=[[0,0.5],[1,0.5]];portConstraint=eastwest;fontSize=16;movable=0;resizable=0;rotatable=0;deletable=0;editable=0;locked=1;connectable=0;" vertex="1" parent="pb4xTn3SGG5Eh6SLnhof-2">
          <mxGeometry y="30" width="490" height="37" as="geometry" />
        </mxCell>
        <mxCell id="pb4xTn3SGG5Eh6SLnhof-49" value="0" style="shape=partialRectangle;html=1;whiteSpace=wrap;connectable=0;strokeColor=inherit;overflow=hidden;fillColor=none;top=0;left=0;bottom=0;right=0;pointerEvents=1;fontSize=24;fontStyle=1;fontColor=#ad0000;movable=0;resizable=0;rotatable=0;deletable=0;editable=0;locked=1;" vertex="1" parent="pb4xTn3SGG5Eh6SLnhof-48">
          <mxGeometry width="50" height="37" as="geometry">
            <mxRectangle width="50" height="37" as="alternateBounds" />
          </mxGeometry>
        </mxCell>
        <mxCell id="pb4xTn3SGG5Eh6SLnhof-50" value="1" style="shape=partialRectangle;html=1;whiteSpace=wrap;connectable=0;strokeColor=inherit;overflow=hidden;fillColor=none;top=0;left=0;bottom=0;right=0;pointerEvents=1;fontSize=24;fontStyle=1;fontColor=#ad0000;movable=0;resizable=0;rotatable=0;deletable=0;editable=0;locked=1;" vertex="1" parent="pb4xTn3SGG5Eh6SLnhof-48">
          <mxGeometry x="50" width="49" height="37" as="geometry">
            <mxRectangle width="49" height="37" as="alternateBounds" />
          </mxGeometry>
        </mxCell>
        <mxCell id="pb4xTn3SGG5Eh6SLnhof-51" value="2" style="shape=partialRectangle;html=1;whiteSpace=wrap;connectable=0;strokeColor=inherit;overflow=hidden;fillColor=none;top=0;left=0;bottom=0;right=0;pointerEvents=1;fontSize=24;fontStyle=1;fontColor=#ad0000;movable=0;resizable=0;rotatable=0;deletable=0;editable=0;locked=1;" vertex="1" parent="pb4xTn3SGG5Eh6SLnhof-48">
          <mxGeometry x="99" width="49" height="37" as="geometry">
            <mxRectangle width="49" height="37" as="alternateBounds" />
          </mxGeometry>
        </mxCell>
        <mxCell id="pb4xTn3SGG5Eh6SLnhof-52" value="3" style="shape=partialRectangle;html=1;whiteSpace=wrap;connectable=0;strokeColor=inherit;overflow=hidden;fillColor=none;top=0;left=0;bottom=0;right=0;pointerEvents=1;fontSize=24;fontStyle=1;fontColor=#ad0000;movable=0;resizable=0;rotatable=0;deletable=0;editable=0;locked=1;" vertex="1" parent="pb4xTn3SGG5Eh6SLnhof-48">
          <mxGeometry x="148" width="50" height="37" as="geometry">
            <mxRectangle width="50" height="37" as="alternateBounds" />
          </mxGeometry>
        </mxCell>
        <mxCell id="pb4xTn3SGG5Eh6SLnhof-53" value="4" style="shape=partialRectangle;html=1;whiteSpace=wrap;connectable=0;strokeColor=inherit;overflow=hidden;fillColor=none;top=0;left=0;bottom=0;right=0;pointerEvents=1;fontSize=24;fontStyle=1;fontColor=#ad0000;movable=0;resizable=0;rotatable=0;deletable=0;editable=0;locked=1;" vertex="1" parent="pb4xTn3SGG5Eh6SLnhof-48">
          <mxGeometry x="198" width="49" height="37" as="geometry">
            <mxRectangle width="49" height="37" as="alternateBounds" />
          </mxGeometry>
        </mxCell>
        <mxCell id="pb4xTn3SGG5Eh6SLnhof-54" value="5" style="shape=partialRectangle;html=1;whiteSpace=wrap;connectable=0;strokeColor=inherit;overflow=hidden;fillColor=none;top=0;left=0;bottom=0;right=0;pointerEvents=1;fontSize=24;fontStyle=1;fontColor=#ad0000;movable=0;resizable=0;rotatable=0;deletable=0;editable=0;locked=1;" vertex="1" parent="pb4xTn3SGG5Eh6SLnhof-48">
          <mxGeometry x="247" width="51" height="37" as="geometry">
            <mxRectangle width="51" height="37" as="alternateBounds" />
          </mxGeometry>
        </mxCell>
        <mxCell id="pb4xTn3SGG5Eh6SLnhof-55" value="6" style="shape=partialRectangle;html=1;whiteSpace=wrap;connectable=0;strokeColor=inherit;overflow=hidden;fillColor=none;top=0;left=0;bottom=0;right=0;pointerEvents=1;fontSize=24;fontStyle=1;fontColor=#ad0000;movable=0;resizable=0;rotatable=0;deletable=0;editable=0;locked=1;" vertex="1" parent="pb4xTn3SGG5Eh6SLnhof-48">
          <mxGeometry x="298" width="48" height="37" as="geometry">
            <mxRectangle width="48" height="37" as="alternateBounds" />
          </mxGeometry>
        </mxCell>
        <mxCell id="pb4xTn3SGG5Eh6SLnhof-56" value="7" style="shape=partialRectangle;html=1;whiteSpace=wrap;connectable=0;strokeColor=inherit;overflow=hidden;fillColor=none;top=0;left=0;bottom=0;right=0;pointerEvents=1;fontSize=24;fontStyle=1;fontColor=#ad0000;movable=0;resizable=0;rotatable=0;deletable=0;editable=0;locked=1;" vertex="1" parent="pb4xTn3SGG5Eh6SLnhof-48">
          <mxGeometry x="346" width="48" height="37" as="geometry">
            <mxRectangle width="48" height="37" as="alternateBounds" />
          </mxGeometry>
        </mxCell>
        <mxCell id="pb4xTn3SGG5Eh6SLnhof-57" value="8" style="shape=partialRectangle;html=1;whiteSpace=wrap;connectable=0;strokeColor=inherit;overflow=hidden;fillColor=none;top=0;left=0;bottom=0;right=0;pointerEvents=1;fontSize=24;fontStyle=1;fontColor=#ad0000;movable=0;resizable=0;rotatable=0;deletable=0;editable=0;locked=1;" vertex="1" parent="pb4xTn3SGG5Eh6SLnhof-48">
          <mxGeometry x="394" width="48" height="37" as="geometry">
            <mxRectangle width="48" height="37" as="alternateBounds" />
          </mxGeometry>
        </mxCell>
        <mxCell id="pb4xTn3SGG5Eh6SLnhof-63" value="9" style="shape=partialRectangle;html=1;whiteSpace=wrap;connectable=0;strokeColor=inherit;overflow=hidden;fillColor=none;top=0;left=0;bottom=0;right=0;pointerEvents=1;fontSize=24;fontStyle=1;fontColor=#ad0000;movable=0;resizable=0;rotatable=0;deletable=0;editable=0;locked=1;" vertex="1" parent="pb4xTn3SGG5Eh6SLnhof-48">
          <mxGeometry x="442" width="48" height="37" as="geometry">
            <mxRectangle width="48" height="37" as="alternateBounds" />
          </mxGeometry>
        </mxCell>
        <mxCell id="pb4xTn3SGG5Eh6SLnhof-3" value="" style="shape=tableRow;horizontal=0;startSize=0;swimlaneHead=0;swimlaneBody=0;strokeColor=inherit;top=0;left=0;bottom=0;right=0;collapsible=0;dropTarget=0;fillColor=none;points=[[0,0.5],[1,0.5]];portConstraint=eastwest;fontSize=16;movable=0;resizable=0;rotatable=0;deletable=0;editable=0;locked=1;connectable=0;" vertex="1" parent="pb4xTn3SGG5Eh6SLnhof-2">
          <mxGeometry y="67" width="490" height="37" as="geometry" />
        </mxCell>
        <mxCell id="pb4xTn3SGG5Eh6SLnhof-4" value="a&lt;br&gt;" style="shape=partialRectangle;html=1;whiteSpace=wrap;connectable=0;strokeColor=inherit;overflow=hidden;fillColor=none;top=0;left=0;bottom=0;right=0;pointerEvents=1;fontSize=16;movable=0;resizable=0;rotatable=0;deletable=0;editable=0;locked=1;" vertex="1" parent="pb4xTn3SGG5Eh6SLnhof-3">
          <mxGeometry width="50" height="37" as="geometry">
            <mxRectangle width="50" height="37" as="alternateBounds" />
          </mxGeometry>
        </mxCell>
        <mxCell id="pb4xTn3SGG5Eh6SLnhof-5" value="b" style="shape=partialRectangle;html=1;whiteSpace=wrap;connectable=0;strokeColor=inherit;overflow=hidden;fillColor=none;top=0;left=0;bottom=0;right=0;pointerEvents=1;fontSize=16;movable=0;resizable=0;rotatable=0;deletable=0;editable=0;locked=1;" vertex="1" parent="pb4xTn3SGG5Eh6SLnhof-3">
          <mxGeometry x="50" width="49" height="37" as="geometry">
            <mxRectangle width="49" height="37" as="alternateBounds" />
          </mxGeometry>
        </mxCell>
        <mxCell id="pb4xTn3SGG5Eh6SLnhof-6" value="c" style="shape=partialRectangle;html=1;whiteSpace=wrap;connectable=0;strokeColor=inherit;overflow=hidden;fillColor=none;top=0;left=0;bottom=0;right=0;pointerEvents=1;fontSize=16;movable=0;resizable=0;rotatable=0;deletable=0;editable=0;locked=1;" vertex="1" parent="pb4xTn3SGG5Eh6SLnhof-3">
          <mxGeometry x="99" width="49" height="37" as="geometry">
            <mxRectangle width="49" height="37" as="alternateBounds" />
          </mxGeometry>
        </mxCell>
        <mxCell id="pb4xTn3SGG5Eh6SLnhof-24" value="d" style="shape=partialRectangle;html=1;whiteSpace=wrap;connectable=0;strokeColor=inherit;overflow=hidden;fillColor=none;top=0;left=0;bottom=0;right=0;pointerEvents=1;fontSize=16;movable=0;resizable=0;rotatable=0;deletable=0;editable=0;locked=1;" vertex="1" parent="pb4xTn3SGG5Eh6SLnhof-3">
          <mxGeometry x="148" width="50" height="37" as="geometry">
            <mxRectangle width="50" height="37" as="alternateBounds" />
          </mxGeometry>
        </mxCell>
        <mxCell id="pb4xTn3SGG5Eh6SLnhof-28" value="e" style="shape=partialRectangle;html=1;whiteSpace=wrap;connectable=0;strokeColor=inherit;overflow=hidden;fillColor=none;top=0;left=0;bottom=0;right=0;pointerEvents=1;fontSize=16;movable=0;resizable=0;rotatable=0;deletable=0;editable=0;locked=1;" vertex="1" parent="pb4xTn3SGG5Eh6SLnhof-3">
          <mxGeometry x="198" width="49" height="37" as="geometry">
            <mxRectangle width="49" height="37" as="alternateBounds" />
          </mxGeometry>
        </mxCell>
        <mxCell id="pb4xTn3SGG5Eh6SLnhof-32" value="f" style="shape=partialRectangle;html=1;whiteSpace=wrap;connectable=0;strokeColor=inherit;overflow=hidden;fillColor=none;top=0;left=0;bottom=0;right=0;pointerEvents=1;fontSize=16;movable=0;resizable=0;rotatable=0;deletable=0;editable=0;locked=1;" vertex="1" parent="pb4xTn3SGG5Eh6SLnhof-3">
          <mxGeometry x="247" width="51" height="37" as="geometry">
            <mxRectangle width="51" height="37" as="alternateBounds" />
          </mxGeometry>
        </mxCell>
        <mxCell id="pb4xTn3SGG5Eh6SLnhof-36" value="g" style="shape=partialRectangle;html=1;whiteSpace=wrap;connectable=0;strokeColor=inherit;overflow=hidden;fillColor=none;top=0;left=0;bottom=0;right=0;pointerEvents=1;fontSize=16;movable=0;resizable=0;rotatable=0;deletable=0;editable=0;locked=1;" vertex="1" parent="pb4xTn3SGG5Eh6SLnhof-3">
          <mxGeometry x="298" width="48" height="37" as="geometry">
            <mxRectangle width="48" height="37" as="alternateBounds" />
          </mxGeometry>
        </mxCell>
        <mxCell id="pb4xTn3SGG5Eh6SLnhof-40" value="h" style="shape=partialRectangle;html=1;whiteSpace=wrap;connectable=0;strokeColor=inherit;overflow=hidden;fillColor=none;top=0;left=0;bottom=0;right=0;pointerEvents=1;fontSize=16;movable=0;resizable=0;rotatable=0;deletable=0;editable=0;locked=1;" vertex="1" parent="pb4xTn3SGG5Eh6SLnhof-3">
          <mxGeometry x="346" width="48" height="37" as="geometry">
            <mxRectangle width="48" height="37" as="alternateBounds" />
          </mxGeometry>
        </mxCell>
        <mxCell id="pb4xTn3SGG5Eh6SLnhof-44" value="&#39;\n&#39;" style="shape=partialRectangle;html=1;whiteSpace=wrap;connectable=0;strokeColor=inherit;overflow=hidden;fillColor=none;top=0;left=0;bottom=0;right=0;pointerEvents=1;fontSize=16;movable=0;resizable=0;rotatable=0;deletable=0;editable=0;locked=1;" vertex="1" parent="pb4xTn3SGG5Eh6SLnhof-3">
          <mxGeometry x="394" width="48" height="37" as="geometry">
            <mxRectangle width="48" height="37" as="alternateBounds" />
          </mxGeometry>
        </mxCell>
        <mxCell id="pb4xTn3SGG5Eh6SLnhof-64" style="shape=partialRectangle;html=1;whiteSpace=wrap;connectable=0;strokeColor=#432D57;overflow=hidden;fillColor=#76608a;top=0;left=0;bottom=0;right=0;pointerEvents=1;fontSize=16;fontColor=#ffffff;movable=0;resizable=0;rotatable=0;deletable=0;editable=0;locked=1;" vertex="1" parent="pb4xTn3SGG5Eh6SLnhof-3">
          <mxGeometry x="442" width="48" height="37" as="geometry">
            <mxRectangle width="48" height="37" as="alternateBounds" />
          </mxGeometry>
        </mxCell>
        <mxCell id="pb4xTn3SGG5Eh6SLnhof-7" value="" style="shape=tableRow;horizontal=0;startSize=0;swimlaneHead=0;swimlaneBody=0;strokeColor=inherit;top=0;left=0;bottom=0;right=0;collapsible=0;dropTarget=0;fillColor=none;points=[[0,0.5],[1,0.5]];portConstraint=eastwest;fontSize=16;movable=0;resizable=0;rotatable=0;deletable=0;editable=0;locked=1;connectable=0;" vertex="1" parent="pb4xTn3SGG5Eh6SLnhof-2">
          <mxGeometry y="104" width="490" height="38" as="geometry" />
        </mxCell>
        <mxCell id="pb4xTn3SGG5Eh6SLnhof-8" value="5" style="shape=partialRectangle;html=1;whiteSpace=wrap;connectable=0;strokeColor=inherit;overflow=hidden;fillColor=none;top=0;left=0;bottom=0;right=0;pointerEvents=1;fontSize=16;movable=0;resizable=0;rotatable=0;deletable=0;editable=0;locked=1;" vertex="1" parent="pb4xTn3SGG5Eh6SLnhof-7">
          <mxGeometry width="50" height="38" as="geometry">
            <mxRectangle width="50" height="38" as="alternateBounds" />
          </mxGeometry>
        </mxCell>
        <mxCell id="pb4xTn3SGG5Eh6SLnhof-9" value="3" style="shape=partialRectangle;html=1;whiteSpace=wrap;connectable=0;strokeColor=inherit;overflow=hidden;fillColor=none;top=0;left=0;bottom=0;right=0;pointerEvents=1;fontSize=16;movable=0;resizable=0;rotatable=0;deletable=0;editable=0;locked=1;" vertex="1" parent="pb4xTn3SGG5Eh6SLnhof-7">
          <mxGeometry x="50" width="49" height="38" as="geometry">
            <mxRectangle width="49" height="38" as="alternateBounds" />
          </mxGeometry>
        </mxCell>
        <mxCell id="pb4xTn3SGG5Eh6SLnhof-10" value="2" style="shape=partialRectangle;html=1;whiteSpace=wrap;connectable=0;strokeColor=inherit;overflow=hidden;fillColor=none;top=0;left=0;bottom=0;right=0;pointerEvents=1;fontSize=16;movable=0;resizable=0;rotatable=0;deletable=0;editable=0;locked=1;" vertex="1" parent="pb4xTn3SGG5Eh6SLnhof-7">
          <mxGeometry x="99" width="49" height="38" as="geometry">
            <mxRectangle width="49" height="38" as="alternateBounds" />
          </mxGeometry>
        </mxCell>
        <mxCell id="pb4xTn3SGG5Eh6SLnhof-25" value="4" style="shape=partialRectangle;html=1;whiteSpace=wrap;connectable=0;strokeColor=inherit;overflow=hidden;fillColor=none;top=0;left=0;bottom=0;right=0;pointerEvents=1;fontSize=16;movable=0;resizable=0;rotatable=0;deletable=0;editable=0;locked=1;" vertex="1" parent="pb4xTn3SGG5Eh6SLnhof-7">
          <mxGeometry x="148" width="50" height="38" as="geometry">
            <mxRectangle width="50" height="38" as="alternateBounds" />
          </mxGeometry>
        </mxCell>
        <mxCell id="pb4xTn3SGG5Eh6SLnhof-29" value="8" style="shape=partialRectangle;html=1;whiteSpace=wrap;connectable=0;strokeColor=inherit;overflow=hidden;fillColor=none;top=0;left=0;bottom=0;right=0;pointerEvents=1;fontSize=16;movable=0;resizable=0;rotatable=0;deletable=0;editable=0;locked=1;" vertex="1" parent="pb4xTn3SGG5Eh6SLnhof-7">
          <mxGeometry x="198" width="49" height="38" as="geometry">
            <mxRectangle width="49" height="38" as="alternateBounds" />
          </mxGeometry>
        </mxCell>
        <mxCell id="pb4xTn3SGG5Eh6SLnhof-33" value="9" style="shape=partialRectangle;html=1;whiteSpace=wrap;connectable=0;strokeColor=inherit;overflow=hidden;fillColor=none;top=0;left=0;bottom=0;right=0;pointerEvents=1;fontSize=16;movable=0;resizable=0;rotatable=0;deletable=0;editable=0;locked=1;" vertex="1" parent="pb4xTn3SGG5Eh6SLnhof-7">
          <mxGeometry x="247" width="51" height="38" as="geometry">
            <mxRectangle width="51" height="38" as="alternateBounds" />
          </mxGeometry>
        </mxCell>
        <mxCell id="pb4xTn3SGG5Eh6SLnhof-37" value="&#39;\n&#39;" style="shape=partialRectangle;html=1;whiteSpace=wrap;connectable=0;strokeColor=inherit;overflow=hidden;fillColor=none;top=0;left=0;bottom=0;right=0;pointerEvents=1;fontSize=16;movable=0;resizable=0;rotatable=0;deletable=0;editable=0;locked=1;" vertex="1" parent="pb4xTn3SGG5Eh6SLnhof-7">
          <mxGeometry x="298" width="48" height="38" as="geometry">
            <mxRectangle width="48" height="38" as="alternateBounds" />
          </mxGeometry>
        </mxCell>
        <mxCell id="pb4xTn3SGG5Eh6SLnhof-41" style="shape=partialRectangle;html=1;whiteSpace=wrap;connectable=0;strokeColor=#432D57;overflow=hidden;fillColor=#76608a;top=0;left=0;bottom=0;right=0;pointerEvents=1;fontSize=16;fontColor=#ffffff;movable=0;resizable=0;rotatable=0;deletable=0;editable=0;locked=1;" vertex="1" parent="pb4xTn3SGG5Eh6SLnhof-7">
          <mxGeometry x="346" width="48" height="38" as="geometry">
            <mxRectangle width="48" height="38" as="alternateBounds" />
          </mxGeometry>
        </mxCell>
        <mxCell id="pb4xTn3SGG5Eh6SLnhof-45" style="shape=partialRectangle;html=1;whiteSpace=wrap;connectable=0;strokeColor=#432D57;overflow=hidden;fillColor=#76608a;top=0;left=0;bottom=0;right=0;pointerEvents=1;fontSize=16;fontColor=#ffffff;movable=0;resizable=0;rotatable=0;deletable=0;editable=0;locked=1;" vertex="1" parent="pb4xTn3SGG5Eh6SLnhof-7">
          <mxGeometry x="394" width="48" height="38" as="geometry">
            <mxRectangle width="48" height="38" as="alternateBounds" />
          </mxGeometry>
        </mxCell>
        <mxCell id="pb4xTn3SGG5Eh6SLnhof-65" style="shape=partialRectangle;html=1;whiteSpace=wrap;connectable=0;strokeColor=#432D57;overflow=hidden;fillColor=#76608a;top=0;left=0;bottom=0;right=0;pointerEvents=1;fontSize=16;fontColor=#ffffff;movable=0;resizable=0;rotatable=0;deletable=0;editable=0;locked=1;" vertex="1" parent="pb4xTn3SGG5Eh6SLnhof-7">
          <mxGeometry x="442" width="48" height="38" as="geometry">
            <mxRectangle width="48" height="38" as="alternateBounds" />
          </mxGeometry>
        </mxCell>
        <mxCell id="pb4xTn3SGG5Eh6SLnhof-16" style="shape=tableRow;horizontal=0;startSize=0;swimlaneHead=0;swimlaneBody=0;strokeColor=inherit;top=0;left=0;bottom=0;right=0;collapsible=0;dropTarget=0;fillColor=none;points=[[0,0.5],[1,0.5]];portConstraint=eastwest;fontSize=16;movable=0;resizable=0;rotatable=0;deletable=0;editable=0;locked=1;connectable=0;" vertex="1" parent="pb4xTn3SGG5Eh6SLnhof-2">
          <mxGeometry y="142" width="490" height="37" as="geometry" />
        </mxCell>
        <mxCell id="pb4xTn3SGG5Eh6SLnhof-17" value="v" style="shape=partialRectangle;html=1;whiteSpace=wrap;connectable=0;strokeColor=inherit;overflow=hidden;fillColor=none;top=0;left=0;bottom=0;right=0;pointerEvents=1;fontSize=16;movable=0;resizable=0;rotatable=0;deletable=0;editable=0;locked=1;" vertex="1" parent="pb4xTn3SGG5Eh6SLnhof-16">
          <mxGeometry width="50" height="37" as="geometry">
            <mxRectangle width="50" height="37" as="alternateBounds" />
          </mxGeometry>
        </mxCell>
        <mxCell id="pb4xTn3SGG5Eh6SLnhof-18" value="r" style="shape=partialRectangle;html=1;whiteSpace=wrap;connectable=0;strokeColor=inherit;overflow=hidden;fillColor=none;top=0;left=0;bottom=0;right=0;pointerEvents=1;fontSize=16;movable=0;resizable=0;rotatable=0;deletable=0;editable=0;locked=1;" vertex="1" parent="pb4xTn3SGG5Eh6SLnhof-16">
          <mxGeometry x="50" width="49" height="37" as="geometry">
            <mxRectangle width="49" height="37" as="alternateBounds" />
          </mxGeometry>
        </mxCell>
        <mxCell id="pb4xTn3SGG5Eh6SLnhof-19" value="&#39;\n&#39;" style="shape=partialRectangle;html=1;whiteSpace=wrap;connectable=0;strokeColor=inherit;overflow=hidden;fillColor=none;top=0;left=0;bottom=0;right=0;pointerEvents=1;fontSize=16;movable=0;resizable=0;rotatable=0;deletable=0;editable=0;locked=1;" vertex="1" parent="pb4xTn3SGG5Eh6SLnhof-16">
          <mxGeometry x="99" width="49" height="37" as="geometry">
            <mxRectangle width="49" height="37" as="alternateBounds" />
          </mxGeometry>
        </mxCell>
        <mxCell id="pb4xTn3SGG5Eh6SLnhof-26" value="" style="shape=partialRectangle;html=1;whiteSpace=wrap;connectable=0;strokeColor=#432D57;overflow=hidden;fillColor=#76608a;top=0;left=0;bottom=0;right=0;pointerEvents=1;fontSize=16;fontColor=#ffffff;movable=0;resizable=0;rotatable=0;deletable=0;editable=0;locked=1;" vertex="1" parent="pb4xTn3SGG5Eh6SLnhof-16">
          <mxGeometry x="148" width="50" height="37" as="geometry">
            <mxRectangle width="50" height="37" as="alternateBounds" />
          </mxGeometry>
        </mxCell>
        <mxCell id="pb4xTn3SGG5Eh6SLnhof-30" style="shape=partialRectangle;html=1;whiteSpace=wrap;connectable=0;strokeColor=#432D57;overflow=hidden;fillColor=#76608a;top=0;left=0;bottom=0;right=0;pointerEvents=1;fontSize=16;fontColor=#ffffff;movable=0;resizable=0;rotatable=0;deletable=0;editable=0;locked=1;" vertex="1" parent="pb4xTn3SGG5Eh6SLnhof-16">
          <mxGeometry x="198" width="49" height="37" as="geometry">
            <mxRectangle width="49" height="37" as="alternateBounds" />
          </mxGeometry>
        </mxCell>
        <mxCell id="pb4xTn3SGG5Eh6SLnhof-34" style="shape=partialRectangle;html=1;whiteSpace=wrap;connectable=0;strokeColor=#432D57;overflow=hidden;fillColor=#76608a;top=0;left=0;bottom=0;right=0;pointerEvents=1;fontSize=16;fontColor=#ffffff;movable=0;resizable=0;rotatable=0;deletable=0;editable=0;locked=1;" vertex="1" parent="pb4xTn3SGG5Eh6SLnhof-16">
          <mxGeometry x="247" width="51" height="37" as="geometry">
            <mxRectangle width="51" height="37" as="alternateBounds" />
          </mxGeometry>
        </mxCell>
        <mxCell id="pb4xTn3SGG5Eh6SLnhof-38" style="shape=partialRectangle;html=1;whiteSpace=wrap;connectable=0;strokeColor=#432D57;overflow=hidden;fillColor=#76608a;top=0;left=0;bottom=0;right=0;pointerEvents=1;fontSize=16;fontColor=#ffffff;movable=0;resizable=0;rotatable=0;deletable=0;editable=0;locked=1;" vertex="1" parent="pb4xTn3SGG5Eh6SLnhof-16">
          <mxGeometry x="298" width="48" height="37" as="geometry">
            <mxRectangle width="48" height="37" as="alternateBounds" />
          </mxGeometry>
        </mxCell>
        <mxCell id="pb4xTn3SGG5Eh6SLnhof-42" style="shape=partialRectangle;html=1;whiteSpace=wrap;connectable=0;strokeColor=#432D57;overflow=hidden;fillColor=#76608a;top=0;left=0;bottom=0;right=0;pointerEvents=1;fontSize=16;fontColor=#ffffff;movable=0;resizable=0;rotatable=0;deletable=0;editable=0;locked=1;" vertex="1" parent="pb4xTn3SGG5Eh6SLnhof-16">
          <mxGeometry x="346" width="48" height="37" as="geometry">
            <mxRectangle width="48" height="37" as="alternateBounds" />
          </mxGeometry>
        </mxCell>
        <mxCell id="pb4xTn3SGG5Eh6SLnhof-46" style="shape=partialRectangle;html=1;whiteSpace=wrap;connectable=0;strokeColor=#432D57;overflow=hidden;fillColor=#76608a;top=0;left=0;bottom=0;right=0;pointerEvents=1;fontSize=16;fontColor=#ffffff;movable=0;resizable=0;rotatable=0;deletable=0;editable=0;locked=1;" vertex="1" parent="pb4xTn3SGG5Eh6SLnhof-16">
          <mxGeometry x="394" width="48" height="37" as="geometry">
            <mxRectangle width="48" height="37" as="alternateBounds" />
          </mxGeometry>
        </mxCell>
        <mxCell id="pb4xTn3SGG5Eh6SLnhof-66" style="shape=partialRectangle;html=1;whiteSpace=wrap;connectable=0;strokeColor=#432D57;overflow=hidden;fillColor=#76608a;top=0;left=0;bottom=0;right=0;pointerEvents=1;fontSize=16;fontColor=#ffffff;movable=0;resizable=0;rotatable=0;deletable=0;editable=0;locked=1;" vertex="1" parent="pb4xTn3SGG5Eh6SLnhof-16">
          <mxGeometry x="442" width="48" height="37" as="geometry">
            <mxRectangle width="48" height="37" as="alternateBounds" />
          </mxGeometry>
        </mxCell>
        <mxCell id="pb4xTn3SGG5Eh6SLnhof-20" style="shape=tableRow;horizontal=0;startSize=0;swimlaneHead=0;swimlaneBody=0;strokeColor=inherit;top=0;left=0;bottom=0;right=0;collapsible=0;dropTarget=0;fillColor=none;points=[[0,0.5],[1,0.5]];portConstraint=eastwest;fontSize=16;movable=0;resizable=0;rotatable=0;deletable=0;editable=0;locked=1;connectable=0;" vertex="1" parent="pb4xTn3SGG5Eh6SLnhof-2">
          <mxGeometry y="179" width="490" height="38" as="geometry" />
        </mxCell>
        <mxCell id="pb4xTn3SGG5Eh6SLnhof-21" value="t" style="shape=partialRectangle;html=1;whiteSpace=wrap;connectable=0;strokeColor=inherit;overflow=hidden;fillColor=none;top=0;left=0;bottom=0;right=0;pointerEvents=1;fontSize=16;movable=0;resizable=0;rotatable=0;deletable=0;editable=0;locked=1;" vertex="1" parent="pb4xTn3SGG5Eh6SLnhof-20">
          <mxGeometry width="50" height="38" as="geometry">
            <mxRectangle width="50" height="38" as="alternateBounds" />
          </mxGeometry>
        </mxCell>
        <mxCell id="pb4xTn3SGG5Eh6SLnhof-22" value="k" style="shape=partialRectangle;html=1;whiteSpace=wrap;connectable=0;strokeColor=inherit;overflow=hidden;fillColor=none;top=0;left=0;bottom=0;right=0;pointerEvents=1;fontSize=16;movable=0;resizable=0;rotatable=0;deletable=0;editable=0;locked=1;" vertex="1" parent="pb4xTn3SGG5Eh6SLnhof-20">
          <mxGeometry x="50" width="49" height="38" as="geometry">
            <mxRectangle width="49" height="38" as="alternateBounds" />
          </mxGeometry>
        </mxCell>
        <mxCell id="pb4xTn3SGG5Eh6SLnhof-23" value="s" style="shape=partialRectangle;html=1;whiteSpace=wrap;connectable=0;strokeColor=inherit;overflow=hidden;fillColor=none;top=0;left=0;bottom=0;right=0;pointerEvents=1;fontSize=16;movable=0;resizable=0;rotatable=0;deletable=0;editable=0;locked=1;" vertex="1" parent="pb4xTn3SGG5Eh6SLnhof-20">
          <mxGeometry x="99" width="49" height="38" as="geometry">
            <mxRectangle width="49" height="38" as="alternateBounds" />
          </mxGeometry>
        </mxCell>
        <mxCell id="pb4xTn3SGG5Eh6SLnhof-27" value="&#39;\n&#39;" style="shape=partialRectangle;html=1;whiteSpace=wrap;connectable=0;strokeColor=inherit;overflow=hidden;fillColor=none;top=0;left=0;bottom=0;right=0;pointerEvents=1;fontSize=16;movable=0;resizable=0;rotatable=0;deletable=0;editable=0;locked=1;" vertex="1" parent="pb4xTn3SGG5Eh6SLnhof-20">
          <mxGeometry x="148" width="50" height="38" as="geometry">
            <mxRectangle width="50" height="38" as="alternateBounds" />
          </mxGeometry>
        </mxCell>
        <mxCell id="pb4xTn3SGG5Eh6SLnhof-31" style="shape=partialRectangle;html=1;whiteSpace=wrap;connectable=0;strokeColor=#432D57;overflow=hidden;fillColor=#76608a;top=0;left=0;bottom=0;right=0;pointerEvents=1;fontSize=16;fontColor=#ffffff;movable=0;resizable=0;rotatable=0;deletable=0;editable=0;locked=1;" vertex="1" parent="pb4xTn3SGG5Eh6SLnhof-20">
          <mxGeometry x="198" width="49" height="38" as="geometry">
            <mxRectangle width="49" height="38" as="alternateBounds" />
          </mxGeometry>
        </mxCell>
        <mxCell id="pb4xTn3SGG5Eh6SLnhof-35" style="shape=partialRectangle;html=1;whiteSpace=wrap;connectable=0;strokeColor=#432D57;overflow=hidden;fillColor=#76608a;top=0;left=0;bottom=0;right=0;pointerEvents=1;fontSize=16;fontColor=#ffffff;movable=0;resizable=0;rotatable=0;deletable=0;editable=0;locked=1;" vertex="1" parent="pb4xTn3SGG5Eh6SLnhof-20">
          <mxGeometry x="247" width="51" height="38" as="geometry">
            <mxRectangle width="51" height="38" as="alternateBounds" />
          </mxGeometry>
        </mxCell>
        <mxCell id="pb4xTn3SGG5Eh6SLnhof-39" style="shape=partialRectangle;html=1;whiteSpace=wrap;connectable=0;strokeColor=#432D57;overflow=hidden;fillColor=#76608a;top=0;left=0;bottom=0;right=0;pointerEvents=1;fontSize=16;fontColor=#ffffff;movable=0;resizable=0;rotatable=0;deletable=0;editable=0;locked=1;" vertex="1" parent="pb4xTn3SGG5Eh6SLnhof-20">
          <mxGeometry x="298" width="48" height="38" as="geometry">
            <mxRectangle width="48" height="38" as="alternateBounds" />
          </mxGeometry>
        </mxCell>
        <mxCell id="pb4xTn3SGG5Eh6SLnhof-43" style="shape=partialRectangle;html=1;whiteSpace=wrap;connectable=0;strokeColor=#432D57;overflow=hidden;fillColor=#76608a;top=0;left=0;bottom=0;right=0;pointerEvents=1;fontSize=16;fontColor=#ffffff;movable=0;resizable=0;rotatable=0;deletable=0;editable=0;locked=1;" vertex="1" parent="pb4xTn3SGG5Eh6SLnhof-20">
          <mxGeometry x="346" width="48" height="38" as="geometry">
            <mxRectangle width="48" height="38" as="alternateBounds" />
          </mxGeometry>
        </mxCell>
        <mxCell id="pb4xTn3SGG5Eh6SLnhof-47" style="shape=partialRectangle;html=1;whiteSpace=wrap;connectable=0;strokeColor=#432D57;overflow=hidden;fillColor=#76608a;top=0;left=0;bottom=0;right=0;pointerEvents=1;fontSize=16;fontColor=#ffffff;movable=0;resizable=0;rotatable=0;deletable=0;editable=0;locked=1;" vertex="1" parent="pb4xTn3SGG5Eh6SLnhof-20">
          <mxGeometry x="394" width="48" height="38" as="geometry">
            <mxRectangle width="48" height="38" as="alternateBounds" />
          </mxGeometry>
        </mxCell>
        <mxCell id="pb4xTn3SGG5Eh6SLnhof-67" style="shape=partialRectangle;html=1;whiteSpace=wrap;connectable=0;strokeColor=#432D57;overflow=hidden;fillColor=#76608a;top=0;left=0;bottom=0;right=0;pointerEvents=1;fontSize=16;fontColor=#ffffff;movable=0;resizable=0;rotatable=0;deletable=0;editable=0;locked=1;" vertex="1" parent="pb4xTn3SGG5Eh6SLnhof-20">
          <mxGeometry x="442" width="48" height="38" as="geometry">
            <mxRectangle width="48" height="38" as="alternateBounds" />
          </mxGeometry>
        </mxCell>
        <mxCell id="pb4xTn3SGG5Eh6SLnhof-68" style="shape=tableRow;horizontal=0;startSize=0;swimlaneHead=0;swimlaneBody=0;strokeColor=inherit;top=0;left=0;bottom=0;right=0;collapsible=0;dropTarget=0;fillColor=none;points=[[0,0.5],[1,0.5]];portConstraint=eastwest;fontSize=16;movable=0;resizable=0;rotatable=0;deletable=0;editable=0;locked=1;connectable=0;" vertex="1" parent="pb4xTn3SGG5Eh6SLnhof-2">
          <mxGeometry y="217" width="490" height="38" as="geometry" />
        </mxCell>
        <mxCell id="pb4xTn3SGG5Eh6SLnhof-69" value="v" style="shape=partialRectangle;html=1;whiteSpace=wrap;connectable=0;strokeColor=inherit;overflow=hidden;fillColor=none;top=0;left=0;bottom=0;right=0;pointerEvents=1;fontSize=16;movable=0;resizable=0;rotatable=0;deletable=0;editable=0;locked=1;" vertex="1" parent="pb4xTn3SGG5Eh6SLnhof-68">
          <mxGeometry width="50" height="38" as="geometry">
            <mxRectangle width="50" height="38" as="alternateBounds" />
          </mxGeometry>
        </mxCell>
        <mxCell id="pb4xTn3SGG5Eh6SLnhof-70" value="s" style="shape=partialRectangle;html=1;whiteSpace=wrap;connectable=0;strokeColor=inherit;overflow=hidden;fillColor=none;top=0;left=0;bottom=0;right=0;pointerEvents=1;fontSize=16;movable=0;resizable=0;rotatable=0;deletable=0;editable=0;locked=1;" vertex="1" parent="pb4xTn3SGG5Eh6SLnhof-68">
          <mxGeometry x="50" width="49" height="38" as="geometry">
            <mxRectangle width="49" height="38" as="alternateBounds" />
          </mxGeometry>
        </mxCell>
        <mxCell id="pb4xTn3SGG5Eh6SLnhof-71" value="d" style="shape=partialRectangle;html=1;whiteSpace=wrap;connectable=0;strokeColor=inherit;overflow=hidden;fillColor=none;top=0;left=0;bottom=0;right=0;pointerEvents=1;fontSize=16;movable=0;resizable=0;rotatable=0;deletable=0;editable=0;locked=1;" vertex="1" parent="pb4xTn3SGG5Eh6SLnhof-68">
          <mxGeometry x="99" width="49" height="38" as="geometry">
            <mxRectangle width="49" height="38" as="alternateBounds" />
          </mxGeometry>
        </mxCell>
        <mxCell id="pb4xTn3SGG5Eh6SLnhof-72" value="i" style="shape=partialRectangle;html=1;whiteSpace=wrap;connectable=0;strokeColor=inherit;overflow=hidden;fillColor=none;top=0;left=0;bottom=0;right=0;pointerEvents=1;fontSize=16;movable=0;resizable=0;rotatable=0;deletable=0;editable=0;locked=1;" vertex="1" parent="pb4xTn3SGG5Eh6SLnhof-68">
          <mxGeometry x="148" width="50" height="38" as="geometry">
            <mxRectangle width="50" height="38" as="alternateBounds" />
          </mxGeometry>
        </mxCell>
        <mxCell id="pb4xTn3SGG5Eh6SLnhof-73" value="o" style="shape=partialRectangle;html=1;whiteSpace=wrap;connectable=0;strokeColor=inherit;overflow=hidden;fillColor=none;top=0;left=0;bottom=0;right=0;pointerEvents=1;fontSize=16;fontColor=#ffffff;movable=0;resizable=0;rotatable=0;deletable=0;editable=0;locked=1;" vertex="1" parent="pb4xTn3SGG5Eh6SLnhof-68">
          <mxGeometry x="198" width="49" height="38" as="geometry">
            <mxRectangle width="49" height="38" as="alternateBounds" />
          </mxGeometry>
        </mxCell>
        <mxCell id="pb4xTn3SGG5Eh6SLnhof-74" value="u" style="shape=partialRectangle;html=1;whiteSpace=wrap;connectable=0;strokeColor=inherit;overflow=hidden;fillColor=none;top=0;left=0;bottom=0;right=0;pointerEvents=1;fontSize=16;fontColor=#ffffff;movable=0;resizable=0;rotatable=0;deletable=0;editable=0;locked=1;" vertex="1" parent="pb4xTn3SGG5Eh6SLnhof-68">
          <mxGeometry x="247" width="51" height="38" as="geometry">
            <mxRectangle width="51" height="38" as="alternateBounds" />
          </mxGeometry>
        </mxCell>
        <mxCell id="pb4xTn3SGG5Eh6SLnhof-75" value="b" style="shape=partialRectangle;html=1;whiteSpace=wrap;connectable=0;strokeColor=inherit;overflow=hidden;fillColor=none;top=0;left=0;bottom=0;right=0;pointerEvents=1;fontSize=16;fontColor=#ffffff;movable=0;resizable=0;rotatable=0;deletable=0;editable=0;locked=1;" vertex="1" parent="pb4xTn3SGG5Eh6SLnhof-68">
          <mxGeometry x="298" width="48" height="38" as="geometry">
            <mxRectangle width="48" height="38" as="alternateBounds" />
          </mxGeometry>
        </mxCell>
        <mxCell id="pb4xTn3SGG5Eh6SLnhof-76" value="a" style="shape=partialRectangle;html=1;whiteSpace=wrap;connectable=0;strokeColor=inherit;overflow=hidden;fillColor=none;top=0;left=0;bottom=0;right=0;pointerEvents=1;fontSize=16;fontColor=#ffffff;movable=0;resizable=0;rotatable=0;deletable=0;editable=0;locked=1;" vertex="1" parent="pb4xTn3SGG5Eh6SLnhof-68">
          <mxGeometry x="346" width="48" height="38" as="geometry">
            <mxRectangle width="48" height="38" as="alternateBounds" />
          </mxGeometry>
        </mxCell>
        <mxCell id="pb4xTn3SGG5Eh6SLnhof-77" value="y" style="shape=partialRectangle;html=1;whiteSpace=wrap;connectable=0;strokeColor=inherit;overflow=hidden;fillColor=none;top=0;left=0;bottom=0;right=0;pointerEvents=1;fontSize=16;fontColor=#ffffff;movable=0;resizable=0;rotatable=0;deletable=0;editable=0;locked=1;" vertex="1" parent="pb4xTn3SGG5Eh6SLnhof-68">
          <mxGeometry x="394" width="48" height="38" as="geometry">
            <mxRectangle width="48" height="38" as="alternateBounds" />
          </mxGeometry>
        </mxCell>
        <mxCell id="pb4xTn3SGG5Eh6SLnhof-78" value="&#39;\n&#39;" style="shape=partialRectangle;html=1;whiteSpace=wrap;connectable=0;strokeColor=inherit;overflow=hidden;fillColor=none;top=0;left=0;bottom=0;right=0;pointerEvents=1;fontSize=16;fontColor=#ffffff;movable=0;resizable=0;rotatable=0;deletable=0;editable=0;locked=1;" vertex="1" parent="pb4xTn3SGG5Eh6SLnhof-68">
          <mxGeometry x="442" width="48" height="38" as="geometry">
            <mxRectangle width="48" height="38" as="alternateBounds" />
          </mxGeometry>
        </mxCell>
        <mxCell id="pb4xTn3SGG5Eh6SLnhof-79" value="BUFFER_SIZE = 4" style="text;html=1;align=center;verticalAlign=middle;resizable=0;points=[];autosize=1;strokeColor=default;fillColor=none;fontStyle=1;rounded=0;strokeWidth=2;movable=0;rotatable=0;deletable=0;editable=0;locked=1;connectable=0;" vertex="1" parent="1">
          <mxGeometry x="170" y="40" width="130" height="30" as="geometry" />
        </mxCell>
      </root>
    </mxGraphModel>
  </diagram>
</mxfile>
